<?xml version="1.0" encoding="UTF-8"?>
<svg width="100%" height="100%" viewBox="0 0 16 16" version="1.1" xmlns="http://www.w3.org/2000/svg" xmlns:xlink="http://www.w3.org/1999/xlink">
  <g>
    <path style="fill:#FF0000;" d="M8,0C3.6,0,0,3.6,0,8s3.6,8,8,8s8-3.6,8-8S12.4,0,8,0z"/>
    <path style="fill:#FFFFFF;" d="M12.1,11.4l-0.7,0.7c-0.1,0.1-0.2,0.1-0.4-0.1L8,9l-3,3c-0.2,0.2-0.3,0.2-0.4,0.1l-0.7-0.7
      C3.8,11.3,3.8,11.2,4,11l3-3L4,5C3.8,4.8,3.8,4.7,3.9,4.6l0.7-0.7c0.1-0.1,0.2-0.1,0.4,0l3,3l3-3c0.2-0.2,0.3-0.2,0.4-0.1l0.7,0.7
      c0.1,0.1,0.1,0.2-0.1,0.4L9,8l3,3C12.2,11.2,12.2,11.3,12.1,11.4z"/>
  </g>
</svg>
