<svg xmlns="http://www.w3.org/2000/svg" xmlns:xlink="http://www.w3.org/1999/xlink" width="399" height="498" viewBox="0 0 399 498">
    <defs>
        <path id="a" d="M0 0h445v516H0z"/>
        <path id="c" d="M0 0h781.796v498.796H0"/>
        <path id="e" d="M0 0h781.796v498.796H0"/>
        <path id="g" d="M0 0h781.796v498.796H0"/>
        <path id="i" d="M0 0h781.796v498.796H0"/>
    </defs>
    <g fill="none" fill-rule="evenodd" transform="translate(-26 -17)">
        <mask id="b" fill="#fff">
            <use xlink:href="#a"/>
        </mask>
        <g mask="url(#b)">
            <g transform="translate(26 17)">
                <mask id="d" fill="#fff">
                    <use xlink:href="#c"/>
                </mask>
                <path fill="#FFF" d="M129.927 32.777c-3.869 3.698-5.929 8.126-8.902 12.593.759.475 6.273 3.47 6.308 3.491 3.934 2.432 5.866 2.788 6.347 2.427 1.535-1.187 9.563-11.133 10.803-13.437 8.804-4.599 24.242-14.668 30.144-19.214 1.672 1.61 16.713 11.16 23.735 15.956 5.24 3.566 10.82 4.916 15.266 7.752 3.198-4.696 5.43-9.884 7.856-14.967.18-.36.887-2.37 1.156-2.884 3.352 2.77 9.157 2.268 12.21 4.63.48.373.533.36.21 1.745-1.067 4.327-.118 9.238 1.165 13.881.26.915 1.103.69 1.791.664 1.328-.088 4.429-1.482 7.194-2.348 7.781-2.388 15.637-3.654 19.395-5.483 4.23-2.088 7.72-5.36 11.561-8.174 2.704-2 5.712-4.34 8.046-6.041.992-.69 1.076-1.051 2.867-1.148 2.285.334 8.83 2.62 11.605 3.557 3.948 1.315 7.935 2.208 9.065 2.577 4.402 1.477 10.537 3.702 11.697 3.31 2.448-.795 8.765-5.557 13.026-8.771-12.593-7.607-24.993-15.543-39.077-20.446-.644-.237-.992.106-1.738 1.012-1.155 1.05-9.342 8.222-10.917 9.695-1.12 1.033-2.774 1.24-4.349 1.27-.803.031-.683-4.185-.847-6.133-.18-2.568 1.518-6.34-.595-7.316-1.892-.836-9.501-1.368-10.008-.612-2.44 3.456-2.687 7.647-3.534 12.118-.516 2.634-.75 8.869-7.211 11.507-2.316 1.306-4.306 1.139-5.21 1.332.12-1.636-.75-10.003-.75-11.647 0-.686-1.39-8.517-2.042-9.928-1.217-2.41-5.315 1.138-8.006 2.532-2.038 1.055-9.88 5.725-10.507 5.773-.494.044-3.678-1.697-5.112-2.273-4.728-2.066-6.418-2.744-11.362-4.507-2.254 7.356-4.773 15.79-5.36 17.447-.092.365-.763.365-1.177-.013-.124-.101-13.096-12.896-19.056-20.468-12.76 2.854-25 7.541-37.726 10.628-5.721 5.509-11.993 12.891-17.961 19.913" mask="url(#d)"/>
            </g>
            <path fill="#FFF" d="M377.057 97.67c1.13.477 7.354 2.72 8.867 2.694.87-.022 1.645-.071 1.7-.71.373-3.805-1.062-7.463-1.846-11.098-2.11-9.663-6.087-18.996-7.901-29.354-.26-1.432-.073-4.118 0-5.559-5.573-3.145-11.775-4.755-17.64-7.293-.578-.241-1.699-.353-1.763.522-.086 4.251 2.028 8.409 3.577 11.527 2.333 4.755 5.555 12.848 6.517 15.002.391.857 1.362 5.563 1.093 8.08-.383 4.068 1.86 7.99 2.456 12.174.392 2.783 1.622 2.551 4.94 4.015M377.656 108.23c-1.987 1.877-6.384 5.175-5.013 6.565 1.736 1.765 4.526 2.541 6.704 3.868 3.402 2.044 6.33 4.499 9.558 7.062 6.503 5.136 8.7 11.95 15.726 16.63 2.406 1.61 4.017 2.621 5.432 3.596.366.262 6.031 3.692 6.835 4.432.026-5.036-2.215-10.1-3.183-14.87-.585-2.852-1.17-6.426-2.308-8.502-1.058-1.629-2-2.604-4.25-4.445-4.722-3.903-8.601-8.05-9.302-8.732-4.027-3.759-7.54-7.902-11.182-12.08-3.875.848-6.348 3.935-9.017 6.475M395.92 147.144c-1.28-.653-5.258-1.881-11.125-3.288-1.656-.4-4.722-2.19-6.017-1.737-1.136.383-.906 1.646-.487 2.256 1.782 2.79 2.68 5.046 3.49 7.075.641 1.637 3.117 8.713 4.457 11.029 2.782.327 6.968 1.406 9.169 2.038 1.605.461 10.508 4.132 14.27 6.274 1.799 1.045 10.598 8.7 11.603 9.353 4.808 3.209 8.254 5.86 11.487 4.693 1.908-.692.023-3.888-.865-5.316-4.966-8.173-8.957-22.032-11-22.924-3.234-1.394-5.823.666-11.605-2.548-3.45-1.902-11.635-5.978-13.376-6.905M361.681 157.239c-1.958 3.586-5.957 7.027-4.137 10.661 2.456 4.833 2.41 10.448 5.805 14.331 3.599 4.155 10.464 3.127 14.874 6.923.46.372 1.133-.118 1.115-.52-.558-8.882-4.46-16.846-7.243-25.282-1.401-4.272-4.516-7.893-7.299-11.58-1.483 1.588-2.115 3.586-3.115 5.467M151.557 136.243c-7.01 1.414-19.214 5.634-19.38 8.137-.359 3.89-.53 13.388-.422 14.455.395 3.574 1.446 7.667 2.946 11 3.228-3.606 5.19-5.046 7.036-6.649 1.104-.887 16.133-11.745 17.484-12.694 2.798-2.015 5.097-1.8 5.28-4.22.454-7.056 2.883-7.32 1.658-9.62-1.446-2.837-11.347-1.041-14.602-.409M139.576 134.902c5.012-4.326 7.999-6.432 14.686-12.969 1.697-1.639 2.38-.872 6.62-3.3 1.804-1.039 2.912-2.532 2.832-3.616-.181-2.78-1.227-5.264-2.898-8.744-.997-2.027-4.095-8.722-4.24-10.555-.174-1.687.145-7.11.336-8.163.691-3.577 1.445-6.938 2.154-10.792.08-.833.173-1.687.173-2.538-.82-.185-1.636-.26-2.42-.26-.886 0-7.055 1.384-11.03 2.326-.753.181-2.19.578-2.327 1.622-.452 3.88-.917 7.775-.917 11.545 0 5.265 1.91 10.322 3.013 15.872.293 1.317.873 3.264-.168 3.802-.412.216-2.264 1.26-2.654 1.489-4.011 2.343-7.308 5.431-11.013 8.048 1.596 6.995.253 14.065 1.277 21.29.057.467.709.956 1.09.542 2.49-2.745 3.341-3.753 5.486-5.6M156.843 167.264c-4.07 1.577-6.355 2.66-9.893 4.13-4.155 2.04-8.113 3.154-10.483 4.622-5.805 3.549-9.072 6.647-15.873 10.658.237 7.027.54 8.237.951 12.135.549 3.928 1.745 12.025 1.682 13.074.112.77.246 1.582.384 2.412 2.727-4.404 9.929-12.209 14.766-17.138 2.972-3.024 7.72-8.88 21.264-15.696 1.472-.747 1.455-.747 1.588-1.621.679-4.466 1.009-9.032 1.098-13.608.027-1.494-3.748.367-5.484 1.032M402.814 200.261c-1.161-.598-3.324-.897-4.636-1.244-3.3-.88-9.659-1.67-9.659-1.302-.123 2.327-.654 4.93-.832 7.48-.041.66.503 4.401 1.152 5.668.366.73 6.903 13.688 7.95 15.438 1.48 2.506 3.666 4.401 5.952 4.982 3.296.83 7.163 3.2 9.983 2.238-.722-3.254-2.546-6.455-3.204-9.674-1.5-7.202-4.526-10.53-5.49-15.09-.243-1.205.301-2.432.365-3.593.17-2.999-.982-4.617-1.581-4.903M125.881 219.542c-1.102.327-1.227 3.314-1.044 7.137.098 1.756 1.4 16.38 2.13 20.715.755 4.328 1.64 7.757 2.613 11.371.85 3.24 1.907 5.965 2.605 8.03.378 1.067 2.223-.937 3.646-2.875 2.187-3.035 5.784-8.739 7.873-12.291.654-1.129.645-.92.334-2.257-1.903-8.053-4.09-17.1-4.242-19.472-.284-4.451 2.214-14.035 2.85-15.805.476-1.283.827-4.278.098-3.942-5.255 2.46-10.612 7.57-16.863 9.389M150.214 259.182c-1.115.765-7.673 5.353-9.88 7.018-2.148 1.634-4.618 2.897-7.22 3.95.866 2.5 2.008 4.178 2.733 6.69.603 2.046.417 3.943 1.3 7.032.64 2.185.699 5.45 1.243 7.718.226.917 2.093.406 2.37-.022 1.187-1.866.666-3.077 1.718-4.781 5.565-8.102 14.063-15.282 15.676-16.637-1.781-3.854-3.01-7.293-3.603-11.807-.276-1.936-2.193-.638-4.337.839M179.644 260.29c-1.5-.618-4.038-2.685-4.295-.676-.482 3.407-.543 8.77-.482 10.95.034 1.137.213 7.6.39 10.516.18 2.713 1.4 4.735 1.835 5.71.626 1.345 2.826 3.362 4.725 4.504 3.855 2.225 8.193 3.855 12.327 6.188.487.28 1.752.298 1.547-.46-1.577-6.369-5.011-11.862-6.598-18.194-1.121-4.514.687-9.56-1.478-13.374-1.464-2.618-4.99-3.886-7.971-5.163M161.702 290.11c-.509-1.163-1.735-.84-3.213-.284-2.745 1.008-12.677 5.077-15.727 6.08-.669.23-5.697 1.701-6.865 1.997 1.204 2.236 2.133 4.035 2.965 5.771 1.235 1.719 3.174 6.327 3.864 8.687.39 3.875 2.187 5.726 2.975 7.529 2.722-2.125 4.825-3.725 7.202-5.859 3.718-3.844 10.486-11.806 13.598-14.294-2.116-2.753-3.692-6.964-4.799-9.628M212.077 271.068c-1.77-1.028-4.048-3.334-5.279-2.345-1.345 1.067-1.524 2.445-1.695 3.946-.092.923 0 2.034.052 3.018.062 2.078-.205 4.09-1.095 5.945 2.65 3.172 4.82 6.374 6.436 9.939 1.932 4.27 3.224 8.937 5.656 13.036 1.016-1.99 1.428-4.353 2.059-6.58.482-1.623 1.292-2.87 1.66-4.667.473-2.196 1.183-3.871.745-6.216-.026-.14-.845-1.606-.845-1.767-.504-2.752.043-4.147-.872-6.654-1.301-3.408-3.457-5.713-6.822-7.655M233.16 255.023c.675 1.002 1.858 3.785 3.037 2.922 3.644-2.657 5.492-5.998 9.444-8.358.853-.495 1.152-.086 1.09.467-.237 1.772-.237 2.78-.237 4.991-.398 4.99-.773 7.697.263 11.748.987 3.804 4.22 2.491 9.645 4.186 1.964.639 2.844-1.128 3.21-2.261.853-2.51 3.148-8.385 3.385-8.817.277-.697.348-1.106 1.17-1.664 1.027 0 1.647 1.408 2.072 2.073 2.33 3.763 1.067 9.653 4.92 10.79 1.005.293 2.295.09 3.626.118.83.031 4.143-.441 4.764-.706 1.411-.594 2.492-1.21 3.103-2.613 1.666-3.808 1.648-8.807 1.224-13.393.397-.171.58-.284.946-.284 3.22 2.127 7.06 5.863 11.382 10.84 1.625-2.661 4.438-8.272 4.988-9.774 2.009-5.386 2.982-11.186 3.027-16.937-20.46-11.46-45.986-10.894-68.013-2.904-.942.35-7.265 2.95-8.497 3.52.795 6.02 2.402 11.213 5.452 16.056M250.96 318.937c.023-3.828-.089-4.832-.49-7.78-.529-4.158.513-8.284-1.405-11.884-.965-1.785-3.337-3.221-5.815-3.194-2.242.022-5.307-.879-7.376-1.401-1.241-.33-1.789-1.77-2.598-.923-.539.544-.356 2.297-.294 3.18.182 4.974-.827 5.291-1.063 7.61-.312 3.413 1.401 9.27 3.652 12.88 1.17 1.806 3.066 2.685 4.654 3.086.2.036 3.79 1.566 5.187 2.708 3.297 2.137 2.799.763 5.85 3.618.303-2.155-.208-5.143-.302-7.9M265.923 295.238c-1.795.65-4.767.532-4.813 2.34-.144 3.746.809 7.59 1.18 11.287.285 3.03.647 5.571.982 8.65.326 3.331-2.037 6.094-.665 9.322 2.58-2.51 8.305-4.413 10.184-7.136 2.906-4.26 4.431-4.336 5.259-7.807 1.214-5.346 1.479-14.082.651-21.182-4.13 1.952-7.966 2.768-12.778 4.526M299.915 287.12c-3.872 2.262-11.06 5.493-10.998 6.885.173 5.8.719 10.878 1.335 13.724-.035 4.526-.754 6.395 1.02 7.327 4.488 2.32 6.142 2.369 10.43 5.135.518.346 5.135 3.577 6.106 3.844.78.236.63-1.375.399-2.093-1.597-4.88-3.64-9.88-4.368-14.857-1.073-7.113-.457-14.244-.457-21.45.018-1.466-2.332.832-3.467 1.484M319.635 280.783c-1.157-.507-3.234-2.022-3.899-.577-1.882 4.335-2.316 12.432-1.086 16.48.869 2.956 7.397 14.89 10.187 17.164.647.506 7.722.665 9.065.229.774-.23 2.647-.07 2.26-.723-5.315-7.996-6.758-15.974-7.166-17.586-.304-1.251-1.808-3.82-2.19-7.692-.314-2.982.942-3.678-.73-4.427-2.852-1.251-3.495-1.643-6.441-2.868M347.186 275.42c-1.6-1.24-2.509-1.167-6.17-1.972-1.87-.412-3.613-1.027-5.51-.71-.465.081-.882.601-.58 1.157 2.584 4.93 6.666 9.756 6.09 15.644 1.245 1.633 2.49 1.778 4.415 2.52 2.699 1.044 8.093 2.844 10.864 2.821 1.166 0 .78-1.904.447-2.795-.518-1.632-1.028-3.437-1.852-4.92-1.636-2.854-6.725-10.972-7.704-11.745M365.797 265.298c-2.336 1.138-4.175 1.578-5.934 3.143 3.06 5.2 7.275 9.33 11.295 13.904 1.896 2.164 5.934 1.898 8.83 2.249 6.453.791 11.96.547 12.543.44 4.432-.96 6.524-1.898 9.065-4.316-4.49-2.263-10.93-4.694-16.567-7.366-5.224-3.782-9.665-6.103-13.49-10.428-2.61.534-3.855 1.498-5.742 2.374M393.217 248.105c-1.853.009-3.817.174-5.532 1.115 1.88 2.796 5.118 11.252 5.448 11.775 1.46 2.312 1.608 4.372 4.445 4.83 6.428.997 12.798.644 19.07 2.573.61.17 1.925.109 1.586-.431-2.593-4.494-3.942-3.231-5.368-4.995-1.403-1.69-5.011-7.743-5.924-9.049-1.506-2.164-2.205-4.19-3.858-5.975-.686-.766-6.535.14-9.867.157M430.334 277.979c-.532-.727-.532-1.657-1.842-.846-.76.452-3.594 2.423-6.673 4.191-1.782 1.041-3.546 2.37-4.921 4.098 3.236 2.823 5.07 5.087 8.725 7.483 1.427.922 3.388.58 6.654.164 5.341-.234 9.03-.257 10.703-.376 2.765-.15 4.76.7 5.913-1.772-2.611-1.166-8.506-4.847-8.913-5.118-3.585-2.392-7.13-4.187-9.646-7.824M390.623 301.227c-.208.181-.208.86 0 1.096 3.476 4.04 5.074 9.01 9.227 12.462.81.71 1.66 1.336 5.375.62 4.998-.97 8.717-.598 13.415-1.1.735-.091 5.88-.118 6.486-.34.518-.2 1.08-.494 1.51-.942-.576-1.984-.882-4.186-2.524-4.693-8.802-2.646-16.94-5.943-22.544-13.45-.992.966-9.156 4.64-10.945 6.347M368.278 309.202c-3.747 2.458-8.1 2.841-11.197 5.92.965 3.004 2.514 5.928 4.904 8.161 2.06 1.956 3.209 4.392 8.207 6.774 7.36 3.52 7.178 2.678 10.37 5.594.547.498 1.406 1.273 2.336.722 5.06-3.06 11.015-3.351 16.623-3.695.431-.03.92-.608.556-1.084-2.515-3.17-5.114-5.51-8.928-7.76-5.714-2.242-9.275-4.915-11.656-9.452-1.486-2.845-2.964-5.642-4.566-8.386-2.581.317-4.486 1.797-6.649 3.206M345.064 328.573c-3.925 1.32-7.944 2.09-11.632 4.002 2.645 6.69 4.963 9.864 13.064 17.762.336.32 1.96 1.239 2.363 1.221 7.86-.17 15.718 1.025 23.524-.49-4.794-4.48-6.235-6.213-9.51-8.865-4.445-3.16-7.153-4.243-12.17-10.238-1.44-3.423-2.833-4.328-5.639-3.392M302.176 340.653c-3.6.645-7.134.273-10.477 1.852 1.582 2.265 1.426 5.542 3.343 7.294 5.28 4.948 6.239 6.736 10.878 14.598 1.76 2.936 8.846 4.28 13.494 4.107 2.313-.086 7.518-2.805 9.845-4.702-3.85-2.741-11.676-10.067-15.121-13.74-2.786-2.945-1.636-7.784-3.953-10.72-2.74.031-5.032.776-8.009 1.311M261.844 346.134c-.473.16-6.706.936-8.632 2.484.263 4.745-.348 9.426-2.194 13.81-1.957 4.719-8.324 7.39-9.395 14.583-.053.425.486.626 1.124.599 1.4-.069 5.43.813 6.104.602 2.84-.872 5.355-4.224 6.79-5.151 3.563-2.32 6.832-4.193 10.47-6.211 2.867-1.576 2.43-3.572 3.05-6.595.022-.16 2.67-10.902 3.063-16.058.009-.434-.575-.877-1.097-.603-1.636.777-7.83 2.074-9.283 2.54M234.169 338.117c-2.663.1-4.652.261-8.006.532-2.238 4.607-4.38 9.098-5.784 14.224-.963 3.514-3.545 6.207-5.182 9.496-.094.234.664.85 1.03.473.678-.694 1.316-1.401 2.386-1.586 5.976-1.068 9.022-1.558 11.27-1.464 3.965-3.666 6.449-6.08 10.043-10.32 0 0 2.44-5.616 1.463-10.013-.397-2.009-4.553-1.477-7.22-1.342M202.343 319.39c-1.31.387-3.722.915-6.583 1.078-.964.044-.847 1.382-.93 1.81-.389 1.98-1.91 11.48-2.533 15.6-.497 4.402-2.07 7.55-2.273 7.986-2.404 5.414-4.557 7.681-6.83 13.466 3.726 1.347 10.46.915 13.136-.035 2.611-.938 4.232-3.24 5.81-5.547.795-1.096 4.137-9.368 5.377-12.62 1.267-3.32.584-8.083 0-9.642-.92-2.394.848-7.118.078-11.049-.644-3.143-3.181-1.66-5.252-1.048"/>
            <g transform="translate(26 17)">
                <mask id="f" fill="#fff">
                    <use xlink:href="#e"/>
                </mask>
                <path fill="#FFF" d="M133.544 305.48c-4.724.115-14.184.948-13.904 1.719.93 2.397 1.643 5.087 2.511 7.307 1.167 2.907 2.983 6.182 3.357 11.96.294 4.339.503 8.677-.41 13.268-.026.363.682.944 1.078.523 3.228-3.399 11.41-8.748 12.76-9.306 1.241-.488 3.147-1.724 3.752-2.956 1.66-3.416.28-6.496.69-10.374.303-3.186.833-9.766 1.296-12.815-2.645-1.463-8.063.576-11.13.673M23.987 500.185c1-.017 1.246-.986.93-1.498-5.588-9.112-9.356-16.85-5.134-27.999 2.615-6.848 8.281-8.992 10.02-10.518.273-4.93-1.497-9.642-.19-14.55 2.03-7.427 10.712-6.361 18.452-5.61-.74 9.674-2.95 18.998-4.05 28.724-1.211 10.686 1.677 19.873 4.094 30.39.101.487.652 1.044 1.083 1.044h13.463c.467 0 1.07-.708.982-.969-1.184-3.917-2.285-6.99-3.205-10.889-.982-4.08-.982-7.148-.56-11.596.48-5.08.362-9.912 1.599-14.731 1.65-.438 2.276.146 3.575.95 3.795 2.269 4.592 3.02 7.493 4.908.722.46 1.356-.584.695-3.135-1.66-5.234 2.924-9.399-1.334-13.418-2.483-2.307-9.329-.349-9.751-1.458-.507-1.31.99-5.138 3.165-9.988 2.14-4.814 2.959-6.021 5.776-10.818 1.026-.553 6.133-.256 10.417.287 1.59.217 5.569 1.561 9.113 3.422.784.412 1.11.725.643 1.442-1.924 3.072-4.006 10.791-5.296 14.443-5.543 15.655-4.738 33.57-3.703 50.643.022.42.599.924 1.013.924 4.257-.017 7.224 0 12.785 0 .242-9.624-1.22-19.634.682-29.095 2.589-12.706 6.498-13.245 7.841-13.608 2.69 0 5.142 2.812 5.803 5.226 3.407 12.649-4.451 24.877-5.2 37.477 4.993-.017 7.735 0 11.495 0 1.73 0 2.976-1.326 4.619-5.124 3.43-7.878 7.929-16.123 9.509-24.634 1.374-6.587-1.153-11.521-5.736-19.099-3.36-5.561-7.3-9.801-16.774-16.198-1.99-5.925-.639-6.981 0-12.68.497-.256 6-.65 8.294-.305 10.258 1.512 13.208 2.489 18.412 4.54 9.254 3.657 17.007 8.878 25.64 14.488.502.354 1.1-.04 1.145-.544.224-3.93 1.03-6.092 1.246-9.173-6.225-6.583-10.963-10.788-18.821-15.748-5.204-2.971-13.947-4.89-21.29-6.384-2.95-.61-3.87-2.533-4.32-4.178-.876-3.095-.136-4.496.035-7.25 8.092-.947 17.809-1.119 21.74.23 12.684 4 28.313 12.1 35.467 16.786.51.332 1.127.681 1.792.681 1.563-3.024.264-6.044.616-9.17-1.77-2.435-15.664-16.459-15.968-16.702-4.495-3.745-9.725-6.985-15.166-8.064-8.986-1.8-18.584-1.923-21.194-1.52-1.651-1.778.127-4.351 1.193-5.841 1.298-1.817 2.606-3.444 4.283-5.124 3.883.186 5.83.084 9.836.3 5.837.155 18.781 4.342 26.516 7.945 12.314 5.765 18.024 10.217 19.627 12.512 1.391-4.704.67-6.543 1.805-9.793-4.671-5.694-11.403-12.591-16.1-15.924-7.075-5.05-16.792-10.66-33.526-15.744-4.015-1.202-9.69-1.998-14.238-2.507-10.663 18.507-17.187 38.817-25.314 58.69-1.387 3.4-3.87 11.543-3.87 12.144-2.149-.101-9.87-3.669-10.483-4.058-3.095-1.919-19.252-6.344-28.057 7.799-.801 1.264-2.13 3.855-3.364 3.369-3.799-1.38-8.778-3.648-15.277-2.786-9.346 1.23-17.139 6.658-22.334 14.753-3.231 5.031-4.468 10.5-3.808 16.363C7.1 454.64 2.3 460.82.667 466.27c-3.275 11.022 6.375 30.028 10.245 33.897l13.075.017" mask="url(#f)"/>
            </g>
            <path fill="#FFF" d="M259.592 391.612c-3.218.07-4.411-.843-6.81.312-.406 5.692 3.062 10.159 4.402 15.745.303 1.256 3.53 2.46 4.136 2.969 5.28 4.585 11.756 7.106 13.096 7.84.512.285.74-.506.486-1.055-.695-1.383-1.732-6.043-1.879-6.693-1.433-6.697-2.052-12.442-3.66-19.06-.253-1.138-1.669-.967-2.345-.8-2.698.672-4.808.69-7.426.742"/>
            <g transform="translate(26 17)">
                <mask id="h" fill="#fff">
                    <use xlink:href="#g"/>
                </mask>
                <path fill="#FFF" d="M269.343 367.231c-2.736-.387-5.242-.819-7.817.214 1.479 3.258 1.884 6.748 2.38 10.224 4.189 4.827 9.635 7.937 15.147 11.217 1.344.754 2.032-1.616 1.94-2.143-.748-5.72-2.192-11.052-3.545-16.828-.109-.462.07-1.703-.936-1.83-2.397-.326-4.763-.527-7.169-.854M314.82 500.185c1.03 0 1.117-.659 1.452-1.582 1.404-3.748.506-5.813 2.552-10.26 1.386.444 4.761.949 6.87 1.177 1.883.216 3.867.273 5.157-.228 3.71-1.485 6.081-5.163 9.21-7.61-4.656-3.604-10.975-3.863-16.352-6.175-.722-.347-1.628-1.006-1.703-1.758-1.505-9.75 1.126-10.858 1.065-16.36-.67-7.136-8.938-10.093-15.908-11.92-3.292-.875-8.366-1.534-10.606-.528-3.071 1.41-5.553 2.97-8.14 5.093-1.057.843-1.21.843-2.082-.22-1.589-1.942-5.078-4.245-7.855-5.018-2.543-.72-5.971-1.609-9.144-.172-.929.405-2.698.752-2.698.752s.894-2.083 1.65-3.27c1.589-2.522 2.654-4.042 4.22-6.248.775-1.112 4.502-4.54 5.743-5.05 3.547-1.498 6.702-1.247 10.482-.21 6.482 1.727 11.252 2.777 12.55 3.142 1.598.483 5.026 2.79 5.844 2.118 3.164-2.645 3.939-4.109 6.214-5.05 7.296-1.572 15.807-2.93 21.136-2.833.378 0 9.593 10.88 13.074 15.639 1.659 2.307 10.055 13.63 15.64 24.08 2.45-.378 4.58-.466 7.304-1.217.132-2.175-3.608-10.854-4.25-12.765-3.732-11.395-5.22-15.464-4.885-19.076 1.975.11 2.297.378 4.805 1.191 2.451.752 6.17 2.162 10.332 4.715 1.822 1.094 3.877 2.237 4.788 4.157 2.086 4.394 2.491 9.228 4.022 13.82.48 1.503 1.056 3.12 2.192 4.324 3.247-8.288 7.063-9.166 10.354-16.386-2.438-11.082-9.056-16.57-16.493-20.526-2.579-1.353-26.79-13.46-30.949-12.77-8.783.866-17.17 2.598-26.121 5.076-.986.114-2.284.198-2.75-.787-1.933-3.893 1.249-8.362 3.55-12.115 1.712-2.772 10.711-4.253 15.103-4.082 13.373.58 22.381 3.111 25.972 4.184 1.73.544 4.528 2.043 6.17 2.706.888.365 1.628.778 2.433 1.209.55.312 1.065-.097 1.127-.55.334-4.086-2.14-7.355-3.582-10.928-4.766-2.122-9.739-3.445-14.707-5.225-6.354-2.258-8.7-3.537-18.773-4.869-3.428-.439-4.519-.254-7.82.54-.576.177-2.389.761-3.92 1.205-.11-1.898.937-3.221 1.712-4.306 2.481-3.674 6.05-6.267 8.853-9.58 1.888 0 3.842.36 5.703.211 6.258-.505 12.137-.294 14.632.123 4.04.694 5.105 2.439 11.2 4.54 1.183.452 2.75 1.243 3.718 1.243.431 0 .035-3.142-.246-4.245-.709-2.707.598-4.434-.476-6.92-.299-.73-1.676-2.14-5.386-3.538-4.968-1.877-8.502-2.914-14.561-6.2-2.887-1.415-11.75-3.551-17.558-1.609-7.305 2.474-8.555 3.09-12.85 4.025-5.958 9.193-9.448 19.687-13.716 29.85-.638 1.472-3.002 7.414-4.419 12.076-1.034 3.313-2.191 7.786-2.415 9.18-.278 1.564-1.048 3.92-1.378 3.862-5.773-1.156-29.365-5.858-36.018 1.006-2.21 2.268-5.096 5.827-8.304 13.38-6.359-3.756-10.192-5.734-15.265-5.536-6.566.286-14.54 4.605-17.972 10.981-.753 1.42-10.192 21.339-9.47 39.14 1.03 10.076 4.642 15.283 10.192 22.977l13.94-.017c.242-.123.56-.409.56-.58-.436-4.447-3.944-11.276-6.307-19.155-1.443-6.684 1.039-19.484 3.156-29.147.189-.896.189-1.564 1.271-1.824 1.804-.483 2.94-.4 5.739-1.66 3.55-1.587 4.713-2.198 8.655-1.881.484.03.938.703.55 1.063-5.113 4.851-4.87 11.25-5.989 18.298-.387 4.025 4.727 23.535 9.928 34.903 3.67 0 6.909 0 11.182-.017.435 0 .739-.497.633-1.13-1.623-10.093-3.67-25.064-2.605-28.382 1.144-5.198 1.91-9.11 3.353-13.266 2.597 1.103 5.338 1.705 7.855 3.124 4.282 2.452 4.163 4.768 3.895 9.026-.405 7.123.317 8.37-.766 12.457-.695 2.681-.695 3.797-.796 6.416-.08 3.581-.124 7.883.84 10.454.233.519.29 1.3 1.246 1.3 3.463 0 5.544 0 9.584.018.893-12.453 1.58-11.359 2.587-17.419.044-.167-.127-8.098 1.228-11.965.748-2.043 2.253-4.864 3.842-6.31 3.256-2.966 5.655-3.243 11.2-1.046-.49 3.845-.252 7.677-.824 11.487-1.087 6.789-3.569 12.83-5.47 19.418-.59 2.153-.985 4.086-2.517 5.835h15.78M398.412 383.177a56.532 56.532 0 0 0-6.328-3.87c-1.088 1.149-.098 2.536-.064 4.625.09 5.884.646 6.374.446 9.39-.157 3.044-1.169 19.746-1.568 25.046 3.604 2.814 7.829 4.166 11.756 6.692.532.296 1.029-.136 1.088-.605.986-10.552 3.511-19.1 1.973-29.321-.404-2.783-1.467-5.146-2.147-7.818-.6-2.253-3.239-2.854-5.156-4.14M380.076 500.185c.494-.094 1.005-.607 1.13-1.107 1.313-4.95 1.936-9.02 2.434-14.028.111-1.388.841-3.004-.472-4.316-2.398 1.21-4.378 2.146-6.893 3.07-1.495.518-4.196.42-4.57 1.946-.72 2.71-1.121 3.92-1.677 6.62-1.416 2.642-3.129 4.762-3.974 6.181-.285.491-.365 1.66.507 1.634h13.515M149.807 472.397c-.403.39-1.07.734-1.133 1.202-.99 8.57-4.89 13.854-7.96 19.697-.984 1.645-2.508 3.641-.907 5.491 7.08-.017 12.191.026 19.293 0 1.243-.017.799-8.05.799-8.075-.018-2.86-.204-5.852-.064-9.436-2.063-2.392-9.238-7.793-10.028-8.879" mask="url(#h)"/>
            </g>
            <path fill="#FFF" d="M440.479 219.947c-1.792-7.753-2.1-9.262-3.095-12.956-1.254-4.813-1.733-10.798-4.34-14.926-3.341 1.702-4.644 1.728-7.744 2.281-3.04.887-5.737 1.641-5.616 2.519 1.532 9.814 6.31 23.85 6.87 39.517.13 3.765-.528 7.099.435 10.798.21.737 1.025 1.412 1.769 1.785.497.246 3.252.83 3.771 1.04 3.543 1.229 6.848 3.172 10.445 4.418.734.242 1.643.193 2.445.013.493-.114.824-.548.64-1.15-1.415-4.645-1.576-10.406-2.432-15.118-.613-3.493-1.715-10.798-3.148-18.221M301.835 114.175c2.31-1.225.117-5.079-1.792-5.72-1.728-.605-3.146-2.064-4.547-3.774-.883-1.11-2.345-2.45-3.807-2.829-5.864-1.531-8.327-1.842-12.064-1.11-1.14.243-3.903.65-3.076 1.71.448.557 1.331.625 2.24 1.919.98 1.395 3.29 1.57 4.939 2.373 2.218 1.072 2.488 5.509 3.032 7.602.23.974 1.24 1.118 2.584 1.225 1.902.14 7.096.17 8.406-.638 1.144-.758 2.889-.12 4.085-.758zm-80.57-24.711c1.1-.424.936-1.734.728-2.581-2.546-9.537-5.468-9.714-10.585-12.342-3.35-1.51-6.055-2.335-9.12-1.803-4.85.808-14.12 3.722-17.056 10.85-.849 2.015-1.342 6.94 1.683 12.486 2.994 5.417 8.053 8.663 11.802 10.98 1.64 1.02 2.479-1.279 2.878-2.044.547-1.124 5.908-6.286 8.218-8.158 3.043-2.516 10.87-7.198 11.451-7.388zm.86 114.762c-.74.495-1.575 1.05-1.327 2.732.095.49.316 1.648.492 2.143.13.395.194 1.822 1.222 3.805 3.78-1.323 5.06-2.317 7.844-3.452 1.037-.433 2.305-.575 3.256-1.182 1.367-.862 2.779-2.294 3.834-3.838-2.643-.82-5.173-1.366-8.105-1.234-2.688.155-5.363-.208-7.217 1.026zm70.966 4.112c1.276.36 2.934.809 4.228 1.277 2.948.985 2.308 1.373 3.815 1.993 2.766 1.112 5.873 2.01 8.666 2.687.072-.98.136-2.143.363-3.104.54-2.12 1.658-3.26.518-5.877-.205-.516-2.067-.615-3.33-.464-2.011.26-4.968-.582-7.388-.16-.559.108-1.554.435-2.553.629-1.33.303-4.382.97-4.319 3.019zm49.825-108.773c1.967-7.435 2.73-16.98-.936-22.812-2.223-3.216-4.535-3.626-10.705-5.082-5.059-1.176-11.359-.325-14.334 3.835-2.846 4.023-6.878 9.314-5.48 14.401 9.033 3.364 13.164 13.653 22.476 15.894 3.508.855 8.124-2.998 8.98-6.236zm-53.755 28.32c-3.936 1.143-6.822 4.18-7.174 5.83-.127.707.26 4.474.234 5.48-.062 2.08.444 4.11.66 6.146.206 1.895.153 3.82.55 5.697 1.297 5.754 2.044 11.526 2.044 17.47 3.73 2.914 5.551 2.883 7.627 4.975 2.252 2.269 3.713 5.161 4.76 8.37 5.63 1.591 10.939 5.17 15.517 8.822.876-.531 4.69-6.563 5.886-8.756.237-.391 1.227-2.11 1.469-2.484-4.02-3.46-9.94-4.215-14.33-6.848-.432-.26-2.107-1.262-2.56-1.697-2.657-2.765-3.515-8.656-8.37-9.231-.687-.106-1.562-.405-1.65-1.662-.255-2.857-1.878-13.24-2.094-15.333-.106-1.358-.268-2.382-.396-3.798-.026-.36.18-.514.47-.299 3.432 4.651 8.362 5.2 11.248 5.372 4.451.264 9.303-1.947 11.374-5.991.695-.62.99-3.39 2.938-4.128 2.406-.915 5.173-2.312 6.976-3.983.524-.514 1.751-2.708 2.063-3.429.238-.571-.14-1.077-.585-1.125-4.416-.461-8.735-.567-13.068-.409-3.11.123-11.339.022-12.518-.052-2.01-.137-4.473-.018-6.382.175-.778.08-3.866.66-4.689.888zm-82.991-.084c-.884.075-.823 1.55-.501 1.929 2.16 2.635 4.99 4.66 8.146 6.259 2.05 1.024 2.086 3.906 3.335 5.429 2.39 2.992 6.174 5.446 11.25 4.864 3.375-.398 4.054-.623 6.201-2.101 1.01-.724 1.206.145 1.324.97.479 3.073.666 6.635.479 9.631-.088 1.819.566 11.993-4.39 12.858-3.7 1.306-9.208 4.81-11.907 8.633-2.116 3.041-3.971 10.739-.536 12.69 2.826 1.593 5.281-3.156 10.114-4.379 3.427-.878 3.275-3.73 5.482-7.062 2.13-3.156 7.841-4.824 8.303-6.876.33-1.378-.035-2.896.048-4.304.88-12.35 1.489-14.049 3.122-22.417.187-1.086.535-8.943.544-9.848.026-3.16-2.652-6.007-5.721-6.669-.945-.212-3.575-1.055-7.52-.401-3.069.485-7.005.291-9.974.123-5.883-.269-11.965.217-17.8.671zm41.92-11.468c2.974-4.341 5.154-8.449 8.481-12.431.587-.677.446-1.534-.49-1.69-2.899-.49-5.379-.732-7.881.026-3.005.883-6.756 3.099-10.944 6.184-4.016 2.982-6.765 5.3-6.765 9.198.905-.036 5.927-.108 7.462 0 5.67.394 7.82 2.17 10.137-1.287zm-47.481-55.708c3.749-.348 8.705 2.604 11.648 3.82 3.277 1.326 7.656 3.349 11.6 6.314 4.938 3.706 7.4 9.033 9.911 14.355 3.908-.348 7.168-.405 11.52.194 6.238.793 12.106 2.604 17.89 4.772.569.216 2.331 1.18 2.71 1.34 8.947-6.306 20.384-9.83 31.424-8.474 1.1.075 1.339.014 1.374-1.18.507-4.6 4.82-10.84 6.661-13.25 3.82-5.084 7.502-7.063 12.925-8.146 6.428-1.278 16.313 1.7 25.587 6.11 6.59 3.169 9.37 11.307 9.912 12.734 2.066 5.296 1.687 12.522.846 20.577-.45 4.291-1.207 9.204-1.361 9.988-1.031 6.085-7.22 8.821-11.296 10.253-.44.154-2.009.503-2.229 1.313-1.749 6.248-.502 14.778-1.507 21.542-.62 3.974-2.348 7.6-2.806 11.623 3.132-.815 5.463-3.93 9.163-3.058-2.709 16.073-6.854 14.05-10.51 21.867-2.318 4.98-3.935 11.205-7.763 15.889-1.243 1.388-3.555 3.375-7.736 5.688-1.634.934.361 2.82 1.128 3.014 5.48 1.247 9.101 2.048 14.436 3.013 1.903.33 12.7 2.252 18.12 3.9 5.964 1.78 11.815 4.569 16.788 6.988 1.533.762-.431 4.895-1.934 9.037-6.987-3.362-12.084-5.715-19.489-7.786-5.498-1.705-13.586-3.15-16.22-3.78-3.53-.798-7.657-1.64-11.16-2.432-.268 2.458-1.832 8.746-1.775 9.627 1.234.515 2.084.806 2.48.952 4.172 1.418 8.089 3.397 12.133 5.15 3.062 1.3 23.436 11.21 30.357 15.325-.63 1.476-1.026 3.29-1.379 4.943-.3 1.882-1.022 3.494-2.15 3.327-1.48-.243-2.462-.582-3.762-1.335-4.154-2.34-17.26-9.716-20.238-11.447-8.344-4.494-11.44-6.072-20.56-9.487-2.498 2.992-4.004 6.627-7.471 8.729-2.26 1.392-11.287-6.534-16.935-9.134-4.119-1.903-11.357-4.177-16.163-4.78-1.678-.22-1.956-2.305-2.48-4.332-.965-3.754-1.789-8.147-.714-8.693 5.96-3.014 8.881-8.49 9.146-11.954.105-1.207.678-1.854 1.634-1.555 2.057.608 3.855 2.564 6.687.467 2.34-1.767 3.243-4.697 2.838-7.345-.437-2.776-2.106-4.895-4.578-5.736-13.687-4.702-27.86-4.27-41.256.793-3.956 1.493-3.586 6.291-2.502 10.028 1.471 4.94 7.216 2.912 10.229.841 1.546-1.07-.45 3.442 1.652 7.2 3.141 5.635 8.234 6.763 8.269 7.922.145 3.917-.432 4.265-.784 6.825-.436 2.895-.397 5.464-3.683 6.054-7.595 1.37-14.564 4.142-21.683 6.843-4.071 1.56-7.802 5.578-11.675 5.609-3.286.052-5.247-5.345-7.744-6.323-2.476-.934-2.648-1.406-7.115.29-13.82 5.217-32.01 14.157-44.812 21.987-2.788-2.683-2.282-6.415-3.035-9.737 14.511-9.346 30.181-16.55 45.953-23.824 1.317-.613.387-5.556-.626-6.94-.577-.784-9.132-.101-26.186 4.19-11.647 2.89-23.419 8.354-24.115 8.645-.63.269-1.387-1.37-1.497-2.198-.362-2.428-2.437-5.746-.542-6.733 8.277-4.415 17.242-7.204 26.053-9.535 8.93-2.352 17.675-4.234 26.613-5.604-.145-.648-.414-3.032-.63-3.573-3.414-8.614-11.057-15.193-17.45-22.159-1.41-1.493-2.674-3.392-2.969-5.37-.462-2.891-2.555-7.43-1.564-8.368 1.238-1.203 2.23.538 5.11 1.344.397.101 2.349.375 2.9.375-.635-4.918-1.591-9.667-2.226-14.629-.748-5.829-.405-15.038.573-22.118.172-1.326.353-1.807-.877-3.349-.947-1.203-6.718-4.155-7.475-4.313-3.04-.555-4.216-1.362-5.75-4.314-3.035-5.838-7.775-11.01-7.581-17.615.176-6.468 2.67-12.747 5.225-18.819 2.004-4.824 7.837-5.252 12.123-7.82 3.846-2.31 8.415-4.19 12.375-4.552z"/>
        </g>
    </g>
</svg>
